<mxfile host="app.diagrams.net" modified="2023-05-25T04:01:42.346Z" agent="Mozilla/5.0 (Macintosh; Intel Mac OS X 10_15_7) AppleWebKit/537.36 (KHTML, like Gecko) Chrome/113.0.0.0 Safari/537.36" etag="Pm8p12VNM6cCfRjhKJwb" version="21.3.3" type="github">
  <diagram name="第 1 页" id="BekG2cdM6ZOPkUdRqFy7">
    <mxGraphModel dx="1910" dy="654" grid="1" gridSize="10" guides="1" tooltips="1" connect="1" arrows="1" fold="1" page="1" pageScale="1" pageWidth="827" pageHeight="1169" math="0" shadow="0">
      <root>
        <mxCell id="0" />
        <mxCell id="1" parent="0" />
        <mxCell id="uZqDk2x9J8b8Om_Up-CV-93" value="" style="rounded=1;whiteSpace=wrap;html=1;arcSize=7;fillColor=#f5f5f5;fontColor=#333333;strokeColor=#666666;" parent="1" vertex="1">
          <mxGeometry x="70" y="300" width="570" height="250" as="geometry" />
        </mxCell>
        <mxCell id="uZqDk2x9J8b8Om_Up-CV-2" value="" style="endArrow=none;dashed=1;html=1;rounded=0;" parent="1" edge="1">
          <mxGeometry width="50" height="50" relative="1" as="geometry">
            <mxPoint x="60" y="876.25" as="sourcePoint" />
            <mxPoint x="60" y="223.75" as="targetPoint" />
          </mxGeometry>
        </mxCell>
        <mxCell id="uZqDk2x9J8b8Om_Up-CV-6" value="task 0" style="rounded=1;whiteSpace=wrap;html=1;" parent="1" vertex="1">
          <mxGeometry x="565" y="310" width="48" height="20" as="geometry" />
        </mxCell>
        <mxCell id="uZqDk2x9J8b8Om_Up-CV-15" value="local dir 0" style="rounded=0;whiteSpace=wrap;html=1;fillColor=#dae8fc;strokeColor=#6c8ebf;" parent="1" vertex="1">
          <mxGeometry x="304" y="330" width="100" height="30" as="geometry" />
        </mxCell>
        <mxCell id="uZqDk2x9J8b8Om_Up-CV-17" value="..." style="rounded=0;whiteSpace=wrap;html=1;fillColor=#dae8fc;strokeColor=#6c8ebf;" parent="1" vertex="1">
          <mxGeometry x="304" y="410" width="100" height="30" as="geometry" />
        </mxCell>
        <mxCell id="uZqDk2x9J8b8Om_Up-CV-21" value="FTP&lt;br&gt;Dir" style="shape=cylinder3;whiteSpace=wrap;html=1;boundedLbl=1;backgroundOutline=1;size=15;fillColor=#dae8fc;strokeColor=#6c8ebf;" parent="1" vertex="1">
          <mxGeometry x="83" y="382.5" width="60" height="80" as="geometry" />
        </mxCell>
        <mxCell id="uZqDk2x9J8b8Om_Up-CV-23" value="Distribute Job" style="rounded=1;whiteSpace=wrap;html=1;fillColor=#ffe6cc;strokeColor=#d79b00;" parent="1" vertex="1">
          <mxGeometry x="170" y="405" width="80" height="35" as="geometry" />
        </mxCell>
        <mxCell id="uZqDk2x9J8b8Om_Up-CV-24" value="" style="endArrow=classic;html=1;rounded=0;exitX=1;exitY=0.5;exitDx=0;exitDy=0;exitPerimeter=0;entryX=0;entryY=0.5;entryDx=0;entryDy=0;" parent="1" source="uZqDk2x9J8b8Om_Up-CV-21" target="uZqDk2x9J8b8Om_Up-CV-23" edge="1">
          <mxGeometry width="50" height="50" relative="1" as="geometry">
            <mxPoint x="440" y="460" as="sourcePoint" />
            <mxPoint x="490" y="410" as="targetPoint" />
          </mxGeometry>
        </mxCell>
        <mxCell id="uZqDk2x9J8b8Om_Up-CV-27" value="" style="strokeWidth=2;html=1;shape=mxgraph.flowchart.annotation_2;align=left;labelPosition=right;pointerEvents=1;" parent="1" vertex="1">
          <mxGeometry x="250" y="340" width="50" height="170" as="geometry" />
        </mxCell>
        <mxCell id="uZqDk2x9J8b8Om_Up-CV-29" value="" style="endArrow=classic;html=1;rounded=0;exitX=1;exitY=0.5;exitDx=0;exitDy=0;entryX=0;entryY=0.5;entryDx=0;entryDy=0;entryPerimeter=0;" parent="1" source="uZqDk2x9J8b8Om_Up-CV-15" target="uZqDk2x9J8b8Om_Up-CV-34" edge="1">
          <mxGeometry width="50" height="50" relative="1" as="geometry">
            <mxPoint x="450" y="384.5" as="sourcePoint" />
            <mxPoint x="461.9999999999998" y="385" as="targetPoint" />
          </mxGeometry>
        </mxCell>
        <mxCell id="uZqDk2x9J8b8Om_Up-CV-36" value="" style="verticalLabelPosition=bottom;verticalAlign=top;html=1;shape=mxgraph.flowchart.parallel_mode;pointerEvents=1" parent="1" vertex="1">
          <mxGeometry x="-95" y="537.5" width="95" height="40" as="geometry" />
        </mxCell>
        <mxCell id="uZqDk2x9J8b8Om_Up-CV-37" value="..." style="rounded=1;whiteSpace=wrap;html=1;" parent="1" vertex="1">
          <mxGeometry x="566" y="335" width="48" height="20" as="geometry" />
        </mxCell>
        <mxCell id="uZqDk2x9J8b8Om_Up-CV-38" value="task n" style="rounded=1;whiteSpace=wrap;html=1;" parent="1" vertex="1">
          <mxGeometry x="566" y="360" width="48" height="20" as="geometry" />
        </mxCell>
        <mxCell id="uZqDk2x9J8b8Om_Up-CV-40" value="" style="strokeWidth=2;html=1;shape=mxgraph.flowchart.annotation_2;align=left;labelPosition=right;pointerEvents=1;" parent="1" vertex="1">
          <mxGeometry x="531" y="310" width="20" height="70" as="geometry" />
        </mxCell>
        <mxCell id="uZqDk2x9J8b8Om_Up-CV-41" value="task 0" style="rounded=1;whiteSpace=wrap;html=1;" parent="1" vertex="1">
          <mxGeometry x="565" y="390" width="48" height="20" as="geometry" />
        </mxCell>
        <mxCell id="uZqDk2x9J8b8Om_Up-CV-42" value="" style="endArrow=classic;html=1;rounded=0;exitX=1;exitY=0.5;exitDx=0;exitDy=0;entryX=0;entryY=0.5;entryDx=0;entryDy=0;entryPerimeter=0;" parent="1" target="uZqDk2x9J8b8Om_Up-CV-43" edge="1">
          <mxGeometry width="50" height="50" relative="1" as="geometry">
            <mxPoint x="404" y="425" as="sourcePoint" />
            <mxPoint x="461.9999999999998" y="465" as="targetPoint" />
          </mxGeometry>
        </mxCell>
        <mxCell id="uZqDk2x9J8b8Om_Up-CV-43" value="" style="verticalLabelPosition=bottom;verticalAlign=top;html=1;shape=mxgraph.flowchart.parallel_mode;pointerEvents=1" parent="1" vertex="1">
          <mxGeometry x="462" y="412.5" width="50" height="25" as="geometry" />
        </mxCell>
        <mxCell id="uZqDk2x9J8b8Om_Up-CV-44" value="..." style="rounded=1;whiteSpace=wrap;html=1;" parent="1" vertex="1">
          <mxGeometry x="566" y="415" width="48" height="20" as="geometry" />
        </mxCell>
        <mxCell id="uZqDk2x9J8b8Om_Up-CV-45" value="task n" style="rounded=1;whiteSpace=wrap;html=1;" parent="1" vertex="1">
          <mxGeometry x="566" y="440" width="48" height="20" as="geometry" />
        </mxCell>
        <mxCell id="uZqDk2x9J8b8Om_Up-CV-46" value="" style="strokeWidth=2;html=1;shape=mxgraph.flowchart.annotation_2;align=left;labelPosition=right;pointerEvents=1;" parent="1" vertex="1">
          <mxGeometry x="531" y="390" width="20" height="70" as="geometry" />
        </mxCell>
        <mxCell id="uZqDk2x9J8b8Om_Up-CV-47" value="local dir n" style="rounded=0;whiteSpace=wrap;html=1;fillColor=#dae8fc;strokeColor=#6c8ebf;" parent="1" vertex="1">
          <mxGeometry x="304" y="490" width="100" height="30" as="geometry" />
        </mxCell>
        <mxCell id="uZqDk2x9J8b8Om_Up-CV-48" value="task 0" style="rounded=1;whiteSpace=wrap;html=1;" parent="1" vertex="1">
          <mxGeometry x="565" y="470" width="48" height="20" as="geometry" />
        </mxCell>
        <mxCell id="uZqDk2x9J8b8Om_Up-CV-49" value="" style="endArrow=classic;html=1;rounded=0;exitX=1;exitY=0.5;exitDx=0;exitDy=0;entryX=0;entryY=0.5;entryDx=0;entryDy=0;entryPerimeter=0;" parent="1" target="uZqDk2x9J8b8Om_Up-CV-50" edge="1">
          <mxGeometry width="50" height="50" relative="1" as="geometry">
            <mxPoint x="404" y="505" as="sourcePoint" />
            <mxPoint x="461.9999999999998" y="545" as="targetPoint" />
          </mxGeometry>
        </mxCell>
        <mxCell id="uZqDk2x9J8b8Om_Up-CV-50" value="" style="verticalLabelPosition=bottom;verticalAlign=top;html=1;shape=mxgraph.flowchart.parallel_mode;pointerEvents=1" parent="1" vertex="1">
          <mxGeometry x="462" y="492.5" width="50" height="25" as="geometry" />
        </mxCell>
        <mxCell id="uZqDk2x9J8b8Om_Up-CV-51" value="..." style="rounded=1;whiteSpace=wrap;html=1;" parent="1" vertex="1">
          <mxGeometry x="566" y="495" width="48" height="20" as="geometry" />
        </mxCell>
        <mxCell id="uZqDk2x9J8b8Om_Up-CV-52" value="task n" style="rounded=1;whiteSpace=wrap;html=1;" parent="1" vertex="1">
          <mxGeometry x="566" y="520" width="48" height="20" as="geometry" />
        </mxCell>
        <mxCell id="uZqDk2x9J8b8Om_Up-CV-53" value="" style="strokeWidth=2;html=1;shape=mxgraph.flowchart.annotation_2;align=left;labelPosition=right;pointerEvents=1;" parent="1" vertex="1">
          <mxGeometry x="531" y="470" width="20" height="70" as="geometry" />
        </mxCell>
        <mxCell id="uZqDk2x9J8b8Om_Up-CV-87" value="" style="strokeWidth=2;html=1;shape=mxgraph.flowchart.annotation_2;align=left;labelPosition=right;pointerEvents=1;" parent="1" vertex="1">
          <mxGeometry y="427.5" width="50" height="260" as="geometry" />
        </mxCell>
        <mxCell id="uZqDk2x9J8b8Om_Up-CV-88" value="kafka" style="shape=cylinder3;whiteSpace=wrap;html=1;boundedLbl=1;backgroundOutline=1;size=15;fillColor=#dae8fc;strokeColor=#6c8ebf;" parent="1" vertex="1">
          <mxGeometry x="720" y="523" width="60" height="80" as="geometry" />
        </mxCell>
        <mxCell id="uZqDk2x9J8b8Om_Up-CV-90" value="" style="strokeWidth=2;html=1;shape=mxgraph.flowchart.annotation_2;align=left;labelPosition=right;pointerEvents=1;rotation=-180;" parent="1" vertex="1">
          <mxGeometry x="660" y="305.5" width="40" height="515" as="geometry" />
        </mxCell>
        <mxCell id="uZqDk2x9J8b8Om_Up-CV-94" value="" style="rounded=1;whiteSpace=wrap;html=1;arcSize=7;fillColor=#f5f5f5;fontColor=#333333;strokeColor=#666666;" parent="1" vertex="1">
          <mxGeometry x="70" y="570.5" width="570" height="250" as="geometry" />
        </mxCell>
        <mxCell id="uZqDk2x9J8b8Om_Up-CV-95" value="task 0" style="rounded=1;whiteSpace=wrap;html=1;" parent="1" vertex="1">
          <mxGeometry x="565" y="580.5" width="48" height="20" as="geometry" />
        </mxCell>
        <mxCell id="uZqDk2x9J8b8Om_Up-CV-96" value="local dir 0" style="rounded=0;whiteSpace=wrap;html=1;fillColor=#dae8fc;strokeColor=#6c8ebf;" parent="1" vertex="1">
          <mxGeometry x="304" y="600.5" width="100" height="30" as="geometry" />
        </mxCell>
        <mxCell id="uZqDk2x9J8b8Om_Up-CV-97" value="..." style="rounded=0;whiteSpace=wrap;html=1;fillColor=#dae8fc;strokeColor=#6c8ebf;" parent="1" vertex="1">
          <mxGeometry x="304" y="680.5" width="100" height="30" as="geometry" />
        </mxCell>
        <mxCell id="uZqDk2x9J8b8Om_Up-CV-98" value="FTP&lt;br&gt;Dir" style="shape=cylinder3;whiteSpace=wrap;html=1;boundedLbl=1;backgroundOutline=1;size=15;fillColor=#dae8fc;strokeColor=#6c8ebf;" parent="1" vertex="1">
          <mxGeometry x="83" y="653" width="60" height="80" as="geometry" />
        </mxCell>
        <mxCell id="uZqDk2x9J8b8Om_Up-CV-99" value="Distribute Job" style="rounded=1;whiteSpace=wrap;html=1;fillColor=#ffe6cc;strokeColor=#d79b00;" parent="1" vertex="1">
          <mxGeometry x="170" y="675.5" width="80" height="35" as="geometry" />
        </mxCell>
        <mxCell id="uZqDk2x9J8b8Om_Up-CV-100" value="" style="endArrow=classic;html=1;rounded=0;exitX=1;exitY=0.5;exitDx=0;exitDy=0;exitPerimeter=0;entryX=0;entryY=0.5;entryDx=0;entryDy=0;" parent="1" source="uZqDk2x9J8b8Om_Up-CV-98" target="uZqDk2x9J8b8Om_Up-CV-99" edge="1">
          <mxGeometry width="50" height="50" relative="1" as="geometry">
            <mxPoint x="440" y="730.5" as="sourcePoint" />
            <mxPoint x="490" y="680.5" as="targetPoint" />
          </mxGeometry>
        </mxCell>
        <mxCell id="uZqDk2x9J8b8Om_Up-CV-101" value="" style="strokeWidth=2;html=1;shape=mxgraph.flowchart.annotation_2;align=left;labelPosition=right;pointerEvents=1;" parent="1" vertex="1">
          <mxGeometry x="250" y="610.5" width="50" height="170" as="geometry" />
        </mxCell>
        <mxCell id="uZqDk2x9J8b8Om_Up-CV-102" value="" style="endArrow=classic;html=1;rounded=0;exitX=1;exitY=0.5;exitDx=0;exitDy=0;entryX=0;entryY=0.5;entryDx=0;entryDy=0;entryPerimeter=0;" parent="1" source="uZqDk2x9J8b8Om_Up-CV-96" target="uZqDk2x9J8b8Om_Up-CV-103" edge="1">
          <mxGeometry width="50" height="50" relative="1" as="geometry">
            <mxPoint x="450" y="655" as="sourcePoint" />
            <mxPoint x="461.9999999999998" y="655.5" as="targetPoint" />
          </mxGeometry>
        </mxCell>
        <mxCell id="uZqDk2x9J8b8Om_Up-CV-103" value="" style="verticalLabelPosition=bottom;verticalAlign=top;html=1;shape=mxgraph.flowchart.parallel_mode;pointerEvents=1" parent="1" vertex="1">
          <mxGeometry x="462" y="603" width="50" height="25" as="geometry" />
        </mxCell>
        <mxCell id="uZqDk2x9J8b8Om_Up-CV-104" value="..." style="rounded=1;whiteSpace=wrap;html=1;" parent="1" vertex="1">
          <mxGeometry x="566" y="605.5" width="48" height="20" as="geometry" />
        </mxCell>
        <mxCell id="uZqDk2x9J8b8Om_Up-CV-105" value="task n" style="rounded=1;whiteSpace=wrap;html=1;" parent="1" vertex="1">
          <mxGeometry x="566" y="630.5" width="48" height="20" as="geometry" />
        </mxCell>
        <mxCell id="uZqDk2x9J8b8Om_Up-CV-106" value="" style="strokeWidth=2;html=1;shape=mxgraph.flowchart.annotation_2;align=left;labelPosition=right;pointerEvents=1;" parent="1" vertex="1">
          <mxGeometry x="531" y="580.5" width="20" height="70" as="geometry" />
        </mxCell>
        <mxCell id="uZqDk2x9J8b8Om_Up-CV-107" value="task 0" style="rounded=1;whiteSpace=wrap;html=1;" parent="1" vertex="1">
          <mxGeometry x="565" y="660.5" width="48" height="20" as="geometry" />
        </mxCell>
        <mxCell id="uZqDk2x9J8b8Om_Up-CV-108" value="" style="endArrow=classic;html=1;rounded=0;exitX=1;exitY=0.5;exitDx=0;exitDy=0;entryX=0;entryY=0.5;entryDx=0;entryDy=0;entryPerimeter=0;" parent="1" target="uZqDk2x9J8b8Om_Up-CV-109" edge="1">
          <mxGeometry width="50" height="50" relative="1" as="geometry">
            <mxPoint x="404" y="695.5" as="sourcePoint" />
            <mxPoint x="461.9999999999998" y="735.5" as="targetPoint" />
          </mxGeometry>
        </mxCell>
        <mxCell id="uZqDk2x9J8b8Om_Up-CV-109" value="" style="verticalLabelPosition=bottom;verticalAlign=top;html=1;shape=mxgraph.flowchart.parallel_mode;pointerEvents=1" parent="1" vertex="1">
          <mxGeometry x="462" y="683" width="50" height="25" as="geometry" />
        </mxCell>
        <mxCell id="uZqDk2x9J8b8Om_Up-CV-110" value="..." style="rounded=1;whiteSpace=wrap;html=1;" parent="1" vertex="1">
          <mxGeometry x="566" y="685.5" width="48" height="20" as="geometry" />
        </mxCell>
        <mxCell id="uZqDk2x9J8b8Om_Up-CV-111" value="task n" style="rounded=1;whiteSpace=wrap;html=1;" parent="1" vertex="1">
          <mxGeometry x="566" y="710.5" width="48" height="20" as="geometry" />
        </mxCell>
        <mxCell id="uZqDk2x9J8b8Om_Up-CV-112" value="" style="strokeWidth=2;html=1;shape=mxgraph.flowchart.annotation_2;align=left;labelPosition=right;pointerEvents=1;" parent="1" vertex="1">
          <mxGeometry x="531" y="660.5" width="20" height="70" as="geometry" />
        </mxCell>
        <mxCell id="uZqDk2x9J8b8Om_Up-CV-113" value="local dir n" style="rounded=0;whiteSpace=wrap;html=1;fillColor=#dae8fc;strokeColor=#6c8ebf;" parent="1" vertex="1">
          <mxGeometry x="304" y="760.5" width="100" height="30" as="geometry" />
        </mxCell>
        <mxCell id="uZqDk2x9J8b8Om_Up-CV-114" value="task 0" style="rounded=1;whiteSpace=wrap;html=1;" parent="1" vertex="1">
          <mxGeometry x="565" y="740.5" width="48" height="20" as="geometry" />
        </mxCell>
        <mxCell id="uZqDk2x9J8b8Om_Up-CV-115" value="" style="endArrow=classic;html=1;rounded=0;exitX=1;exitY=0.5;exitDx=0;exitDy=0;entryX=0;entryY=0.5;entryDx=0;entryDy=0;entryPerimeter=0;" parent="1" target="uZqDk2x9J8b8Om_Up-CV-116" edge="1">
          <mxGeometry width="50" height="50" relative="1" as="geometry">
            <mxPoint x="404" y="775.5" as="sourcePoint" />
            <mxPoint x="461.9999999999998" y="815.5" as="targetPoint" />
          </mxGeometry>
        </mxCell>
        <mxCell id="uZqDk2x9J8b8Om_Up-CV-116" value="" style="verticalLabelPosition=bottom;verticalAlign=top;html=1;shape=mxgraph.flowchart.parallel_mode;pointerEvents=1" parent="1" vertex="1">
          <mxGeometry x="462" y="763" width="50" height="25" as="geometry" />
        </mxCell>
        <mxCell id="uZqDk2x9J8b8Om_Up-CV-117" value="..." style="rounded=1;whiteSpace=wrap;html=1;" parent="1" vertex="1">
          <mxGeometry x="566" y="765.5" width="48" height="20" as="geometry" />
        </mxCell>
        <mxCell id="uZqDk2x9J8b8Om_Up-CV-118" value="task n" style="rounded=1;whiteSpace=wrap;html=1;" parent="1" vertex="1">
          <mxGeometry x="566" y="790.5" width="48" height="20" as="geometry" />
        </mxCell>
        <mxCell id="uZqDk2x9J8b8Om_Up-CV-119" value="" style="strokeWidth=2;html=1;shape=mxgraph.flowchart.annotation_2;align=left;labelPosition=right;pointerEvents=1;" parent="1" vertex="1">
          <mxGeometry x="531" y="740.5" width="20" height="70" as="geometry" />
        </mxCell>
        <mxCell id="uZqDk2x9J8b8Om_Up-CV-120" value="" style="endArrow=none;dashed=1;html=1;rounded=0;" parent="1" edge="1">
          <mxGeometry width="50" height="50" relative="1" as="geometry">
            <mxPoint x="430" y="872.5" as="sourcePoint" />
            <mxPoint x="430" y="220" as="targetPoint" />
          </mxGeometry>
        </mxCell>
        <mxCell id="uZqDk2x9J8b8Om_Up-CV-121" value="buffer" style="text;html=1;strokeColor=none;fillColor=none;align=center;verticalAlign=middle;whiteSpace=wrap;rounded=0;" parent="1" vertex="1">
          <mxGeometry x="452" y="310" width="60" height="30" as="geometry" />
        </mxCell>
        <mxCell id="uZqDk2x9J8b8Om_Up-CV-122" value="推送层" style="text;html=1;strokeColor=none;fillColor=none;align=center;verticalAlign=middle;whiteSpace=wrap;rounded=0;fontSize=14;fontStyle=1" parent="1" vertex="1">
          <mxGeometry x="-95" y="260" width="75" height="30" as="geometry" />
        </mxCell>
        <mxCell id="uZqDk2x9J8b8Om_Up-CV-123" value="分发层" style="text;html=1;strokeColor=none;fillColor=none;align=center;verticalAlign=middle;whiteSpace=wrap;rounded=0;fontSize=14;fontStyle=1" parent="1" vertex="1">
          <mxGeometry x="200" y="260" width="75" height="30" as="geometry" />
        </mxCell>
        <mxCell id="uZqDk2x9J8b8Om_Up-CV-124" value="处理层" style="text;html=1;strokeColor=none;fillColor=none;align=center;verticalAlign=middle;whiteSpace=wrap;rounded=0;fontSize=14;fontStyle=1" parent="1" vertex="1">
          <mxGeometry x="503.5" y="260" width="75" height="30" as="geometry" />
        </mxCell>
        <mxCell id="uZqDk2x9J8b8Om_Up-CV-127" value="Server 0" style="rounded=0;whiteSpace=wrap;html=1;" parent="1" vertex="1">
          <mxGeometry x="70" y="300" width="70" height="33" as="geometry" />
        </mxCell>
        <mxCell id="uZqDk2x9J8b8Om_Up-CV-128" value="Server n" style="rounded=0;whiteSpace=wrap;html=1;" parent="1" vertex="1">
          <mxGeometry x="70" y="570" width="70" height="33" as="geometry" />
        </mxCell>
        <mxCell id="uZqDk2x9J8b8Om_Up-CV-34" value="" style="verticalLabelPosition=bottom;verticalAlign=top;html=1;shape=mxgraph.flowchart.parallel_mode;pointerEvents=1;fillColor=none;strokeColor=default;" parent="1" vertex="1">
          <mxGeometry x="462" y="332.5" width="50" height="25" as="geometry" />
        </mxCell>
        <mxCell id="rie9ZK1b0KE5LXsKnryG-71" style="edgeStyle=orthogonalEdgeStyle;rounded=0;orthogonalLoop=1;jettySize=auto;html=1;exitX=0.5;exitY=1;exitDx=0;exitDy=0;" edge="1" parent="1" source="rie9ZK1b0KE5LXsKnryG-13">
          <mxGeometry relative="1" as="geometry">
            <mxPoint x="-360" y="1190" as="targetPoint" />
          </mxGeometry>
        </mxCell>
        <mxCell id="rie9ZK1b0KE5LXsKnryG-72" style="rounded=0;orthogonalLoop=1;jettySize=auto;html=1;exitX=0.5;exitY=1;exitDx=0;exitDy=0;" edge="1" parent="1" source="rie9ZK1b0KE5LXsKnryG-13">
          <mxGeometry relative="1" as="geometry">
            <mxPoint x="-150" y="1190" as="targetPoint" />
          </mxGeometry>
        </mxCell>
        <mxCell id="rie9ZK1b0KE5LXsKnryG-73" style="edgeStyle=orthogonalEdgeStyle;rounded=0;orthogonalLoop=1;jettySize=auto;html=1;exitX=0.5;exitY=1;exitDx=0;exitDy=0;entryX=0.25;entryY=0;entryDx=0;entryDy=0;" edge="1" parent="1" source="rie9ZK1b0KE5LXsKnryG-13" target="rie9ZK1b0KE5LXsKnryG-66">
          <mxGeometry relative="1" as="geometry" />
        </mxCell>
        <mxCell id="rie9ZK1b0KE5LXsKnryG-56" value="" style="group" vertex="1" connectable="0" parent="1">
          <mxGeometry x="-438" y="1160" width="170" height="100" as="geometry" />
        </mxCell>
        <mxCell id="rie9ZK1b0KE5LXsKnryG-11" value="" style="verticalLabelPosition=bottom;dashed=0;shadow=0;html=1;align=center;verticalAlign=top;shape=mxgraph.cabinets.motor_cb_32_125a;" vertex="1" parent="rie9ZK1b0KE5LXsKnryG-56">
          <mxGeometry y="30" width="50" height="70" as="geometry" />
        </mxCell>
        <mxCell id="rie9ZK1b0KE5LXsKnryG-52" value="" style="rounded=0;whiteSpace=wrap;html=1;" vertex="1" parent="rie9ZK1b0KE5LXsKnryG-56">
          <mxGeometry x="50" y="30" width="120" height="70" as="geometry" />
        </mxCell>
        <mxCell id="rie9ZK1b0KE5LXsKnryG-53" value="statemachine" style="rounded=0;whiteSpace=wrap;html=1;" vertex="1" parent="rie9ZK1b0KE5LXsKnryG-56">
          <mxGeometry x="68.5" y="30" width="77" height="30" as="geometry" />
        </mxCell>
        <mxCell id="rie9ZK1b0KE5LXsKnryG-54" value="checkpoint" style="rounded=0;whiteSpace=wrap;html=1;" vertex="1" parent="rie9ZK1b0KE5LXsKnryG-56">
          <mxGeometry x="68.5" y="70" width="77" height="30" as="geometry" />
        </mxCell>
        <mxCell id="rie9ZK1b0KE5LXsKnryG-55" value="FTP服务器" style="text;html=1;strokeColor=none;fillColor=none;align=center;verticalAlign=middle;whiteSpace=wrap;rounded=0;" vertex="1" parent="rie9ZK1b0KE5LXsKnryG-56">
          <mxGeometry width="68" height="30" as="geometry" />
        </mxCell>
        <mxCell id="rie9ZK1b0KE5LXsKnryG-57" value="" style="group" vertex="1" connectable="0" parent="1">
          <mxGeometry x="-230" y="1160" width="170" height="100" as="geometry" />
        </mxCell>
        <mxCell id="rie9ZK1b0KE5LXsKnryG-59" value="" style="rounded=0;whiteSpace=wrap;html=1;" vertex="1" parent="rie9ZK1b0KE5LXsKnryG-57">
          <mxGeometry y="30" width="170" height="70" as="geometry" />
        </mxCell>
        <mxCell id="rie9ZK1b0KE5LXsKnryG-58" value="" style="verticalLabelPosition=bottom;dashed=0;shadow=0;html=1;align=center;verticalAlign=top;shape=mxgraph.cabinets.motor_cb_32_125a;" vertex="1" parent="rie9ZK1b0KE5LXsKnryG-57">
          <mxGeometry y="30" width="50" height="70" as="geometry" />
        </mxCell>
        <mxCell id="rie9ZK1b0KE5LXsKnryG-60" value="statemachine" style="rounded=0;whiteSpace=wrap;html=1;" vertex="1" parent="rie9ZK1b0KE5LXsKnryG-57">
          <mxGeometry x="68.5" y="30" width="77" height="30" as="geometry" />
        </mxCell>
        <mxCell id="rie9ZK1b0KE5LXsKnryG-61" value="checkpoint" style="rounded=0;whiteSpace=wrap;html=1;" vertex="1" parent="rie9ZK1b0KE5LXsKnryG-57">
          <mxGeometry x="68.5" y="70" width="77" height="30" as="geometry" />
        </mxCell>
        <mxCell id="rie9ZK1b0KE5LXsKnryG-62" value="FTP服务器" style="text;html=1;strokeColor=none;fillColor=none;align=center;verticalAlign=middle;whiteSpace=wrap;rounded=0;" vertex="1" parent="rie9ZK1b0KE5LXsKnryG-57">
          <mxGeometry width="68" height="30" as="geometry" />
        </mxCell>
        <mxCell id="rie9ZK1b0KE5LXsKnryG-63" value="" style="group" vertex="1" connectable="0" parent="1">
          <mxGeometry x="-20" y="1160" width="170" height="100" as="geometry" />
        </mxCell>
        <mxCell id="rie9ZK1b0KE5LXsKnryG-64" value="" style="verticalLabelPosition=bottom;dashed=0;shadow=0;html=1;align=center;verticalAlign=top;shape=mxgraph.cabinets.motor_cb_32_125a;" vertex="1" parent="rie9ZK1b0KE5LXsKnryG-63">
          <mxGeometry y="30" width="50" height="70" as="geometry" />
        </mxCell>
        <mxCell id="rie9ZK1b0KE5LXsKnryG-65" value="" style="rounded=0;whiteSpace=wrap;html=1;" vertex="1" parent="rie9ZK1b0KE5LXsKnryG-63">
          <mxGeometry x="50" y="30" width="120" height="70" as="geometry" />
        </mxCell>
        <mxCell id="rie9ZK1b0KE5LXsKnryG-66" value="statemachine" style="rounded=0;whiteSpace=wrap;html=1;" vertex="1" parent="rie9ZK1b0KE5LXsKnryG-63">
          <mxGeometry x="68.5" y="30" width="77" height="30" as="geometry" />
        </mxCell>
        <mxCell id="rie9ZK1b0KE5LXsKnryG-67" value="checkpoint" style="rounded=0;whiteSpace=wrap;html=1;" vertex="1" parent="rie9ZK1b0KE5LXsKnryG-63">
          <mxGeometry x="68.5" y="70" width="77" height="30" as="geometry" />
        </mxCell>
        <mxCell id="rie9ZK1b0KE5LXsKnryG-68" value="FTP服务器" style="text;html=1;strokeColor=none;fillColor=none;align=center;verticalAlign=middle;whiteSpace=wrap;rounded=0;" vertex="1" parent="rie9ZK1b0KE5LXsKnryG-63">
          <mxGeometry width="68" height="30" as="geometry" />
        </mxCell>
        <mxCell id="rie9ZK1b0KE5LXsKnryG-70" value="..." style="text;html=1;strokeColor=none;fillColor=none;align=center;verticalAlign=middle;whiteSpace=wrap;rounded=0;fontSize=38;" vertex="1" parent="1">
          <mxGeometry x="200" y="1200" width="60" height="30" as="geometry" />
        </mxCell>
        <mxCell id="rie9ZK1b0KE5LXsKnryG-74" value="" style="group" vertex="1" connectable="0" parent="1">
          <mxGeometry x="-330" y="950" width="360" height="150" as="geometry" />
        </mxCell>
        <mxCell id="rie9ZK1b0KE5LXsKnryG-1" value="" style="verticalLabelPosition=bottom;dashed=0;shadow=0;html=1;align=center;verticalAlign=top;shape=mxgraph.cabinets.cb_1p;" vertex="1" parent="rie9ZK1b0KE5LXsKnryG-74">
          <mxGeometry y="40" width="9" height="50" as="geometry" />
        </mxCell>
        <mxCell id="rie9ZK1b0KE5LXsKnryG-2" value="" style="verticalLabelPosition=bottom;dashed=0;shadow=0;html=1;align=center;verticalAlign=top;shape=mxgraph.cabinets.cb_1p;" vertex="1" parent="rie9ZK1b0KE5LXsKnryG-74">
          <mxGeometry x="9" y="40" width="9" height="50" as="geometry" />
        </mxCell>
        <mxCell id="rie9ZK1b0KE5LXsKnryG-3" value="" style="verticalLabelPosition=bottom;dashed=0;shadow=0;html=1;align=center;verticalAlign=top;shape=mxgraph.cabinets.cb_1p;" vertex="1" parent="rie9ZK1b0KE5LXsKnryG-74">
          <mxGeometry x="18" y="40" width="9" height="50" as="geometry" />
        </mxCell>
        <mxCell id="rie9ZK1b0KE5LXsKnryG-4" value="" style="verticalLabelPosition=bottom;dashed=0;shadow=0;html=1;align=center;verticalAlign=top;shape=mxgraph.cabinets.cb_1p;" vertex="1" parent="rie9ZK1b0KE5LXsKnryG-74">
          <mxGeometry x="27" y="40" width="9" height="50" as="geometry" />
        </mxCell>
        <mxCell id="rie9ZK1b0KE5LXsKnryG-5" value="" style="verticalLabelPosition=bottom;dashed=0;shadow=0;html=1;align=center;verticalAlign=top;shape=mxgraph.cabinets.cb_1p;" vertex="1" parent="rie9ZK1b0KE5LXsKnryG-74">
          <mxGeometry x="36" y="40" width="9" height="50" as="geometry" />
        </mxCell>
        <mxCell id="rie9ZK1b0KE5LXsKnryG-6" value="" style="verticalLabelPosition=bottom;dashed=0;shadow=0;html=1;align=center;verticalAlign=top;shape=mxgraph.cabinets.cb_1p;" vertex="1" parent="rie9ZK1b0KE5LXsKnryG-74">
          <mxGeometry x="45" y="40" width="9" height="50" as="geometry" />
        </mxCell>
        <mxCell id="rie9ZK1b0KE5LXsKnryG-7" value="" style="verticalLabelPosition=bottom;dashed=0;shadow=0;html=1;align=center;verticalAlign=top;shape=mxgraph.cabinets.cb_1p;" vertex="1" parent="rie9ZK1b0KE5LXsKnryG-74">
          <mxGeometry x="54" y="40" width="9" height="50" as="geometry" />
        </mxCell>
        <mxCell id="rie9ZK1b0KE5LXsKnryG-8" value="" style="verticalLabelPosition=bottom;dashed=0;shadow=0;html=1;align=center;verticalAlign=top;shape=mxgraph.cabinets.cb_1p;" vertex="1" parent="rie9ZK1b0KE5LXsKnryG-74">
          <mxGeometry x="63" y="40" width="9" height="50" as="geometry" />
        </mxCell>
        <mxCell id="rie9ZK1b0KE5LXsKnryG-9" value="" style="verticalLabelPosition=bottom;dashed=0;shadow=0;html=1;align=center;verticalAlign=top;shape=mxgraph.cabinets.cb_1p;" vertex="1" parent="rie9ZK1b0KE5LXsKnryG-74">
          <mxGeometry x="72" y="40" width="9" height="50" as="geometry" />
        </mxCell>
        <mxCell id="rie9ZK1b0KE5LXsKnryG-10" value="" style="verticalLabelPosition=bottom;dashed=0;shadow=0;html=1;align=center;verticalAlign=top;shape=mxgraph.cabinets.cb_1p;" vertex="1" parent="rie9ZK1b0KE5LXsKnryG-74">
          <mxGeometry x="81" y="40" width="9" height="50" as="geometry" />
        </mxCell>
        <mxCell id="rie9ZK1b0KE5LXsKnryG-12" value="HZ还原机" style="text;html=1;strokeColor=none;fillColor=none;align=center;verticalAlign=middle;whiteSpace=wrap;rounded=0;" vertex="1" parent="rie9ZK1b0KE5LXsKnryG-74">
          <mxGeometry x="10.5" width="60" height="30" as="geometry" />
        </mxCell>
        <mxCell id="rie9ZK1b0KE5LXsKnryG-13" value="" style="rounded=0;whiteSpace=wrap;html=1;" vertex="1" parent="rie9ZK1b0KE5LXsKnryG-74">
          <mxGeometry y="90" width="360" height="60" as="geometry" />
        </mxCell>
        <mxCell id="rie9ZK1b0KE5LXsKnryG-19" value="active ftp server list" style="rounded=0;whiteSpace=wrap;html=1;" vertex="1" parent="rie9ZK1b0KE5LXsKnryG-74">
          <mxGeometry x="6" y="105" width="120" height="30" as="geometry" />
        </mxCell>
        <mxCell id="rie9ZK1b0KE5LXsKnryG-20" value="dead ftp server list" style="rounded=0;whiteSpace=wrap;html=1;" vertex="1" parent="rie9ZK1b0KE5LXsKnryG-74">
          <mxGeometry x="133.5" y="105" width="120" height="30" as="geometry" />
        </mxCell>
        <mxCell id="rie9ZK1b0KE5LXsKnryG-21" value="selector" style="rounded=0;whiteSpace=wrap;html=1;" vertex="1" parent="rie9ZK1b0KE5LXsKnryG-74">
          <mxGeometry x="261" y="105" width="85" height="30" as="geometry" />
        </mxCell>
        <mxCell id="rie9ZK1b0KE5LXsKnryG-22" value="" style="verticalLabelPosition=bottom;dashed=0;shadow=0;html=1;align=center;verticalAlign=top;shape=mxgraph.cabinets.cb_1p;" vertex="1" parent="rie9ZK1b0KE5LXsKnryG-74">
          <mxGeometry x="90" y="40" width="9" height="50" as="geometry" />
        </mxCell>
        <mxCell id="rie9ZK1b0KE5LXsKnryG-23" value="" style="verticalLabelPosition=bottom;dashed=0;shadow=0;html=1;align=center;verticalAlign=top;shape=mxgraph.cabinets.cb_1p;" vertex="1" parent="rie9ZK1b0KE5LXsKnryG-74">
          <mxGeometry x="99" y="40" width="9" height="50" as="geometry" />
        </mxCell>
        <mxCell id="rie9ZK1b0KE5LXsKnryG-24" value="" style="verticalLabelPosition=bottom;dashed=0;shadow=0;html=1;align=center;verticalAlign=top;shape=mxgraph.cabinets.cb_1p;" vertex="1" parent="rie9ZK1b0KE5LXsKnryG-74">
          <mxGeometry x="108" y="40" width="9" height="50" as="geometry" />
        </mxCell>
        <mxCell id="rie9ZK1b0KE5LXsKnryG-25" value="" style="verticalLabelPosition=bottom;dashed=0;shadow=0;html=1;align=center;verticalAlign=top;shape=mxgraph.cabinets.cb_1p;" vertex="1" parent="rie9ZK1b0KE5LXsKnryG-74">
          <mxGeometry x="117" y="40" width="9" height="50" as="geometry" />
        </mxCell>
        <mxCell id="rie9ZK1b0KE5LXsKnryG-26" value="" style="verticalLabelPosition=bottom;dashed=0;shadow=0;html=1;align=center;verticalAlign=top;shape=mxgraph.cabinets.cb_1p;" vertex="1" parent="rie9ZK1b0KE5LXsKnryG-74">
          <mxGeometry x="126" y="40" width="9" height="50" as="geometry" />
        </mxCell>
        <mxCell id="rie9ZK1b0KE5LXsKnryG-27" value="" style="verticalLabelPosition=bottom;dashed=0;shadow=0;html=1;align=center;verticalAlign=top;shape=mxgraph.cabinets.cb_1p;" vertex="1" parent="rie9ZK1b0KE5LXsKnryG-74">
          <mxGeometry x="135" y="40" width="9" height="50" as="geometry" />
        </mxCell>
        <mxCell id="rie9ZK1b0KE5LXsKnryG-28" value="" style="verticalLabelPosition=bottom;dashed=0;shadow=0;html=1;align=center;verticalAlign=top;shape=mxgraph.cabinets.cb_1p;" vertex="1" parent="rie9ZK1b0KE5LXsKnryG-74">
          <mxGeometry x="144" y="40" width="9" height="50" as="geometry" />
        </mxCell>
        <mxCell id="rie9ZK1b0KE5LXsKnryG-29" value="" style="verticalLabelPosition=bottom;dashed=0;shadow=0;html=1;align=center;verticalAlign=top;shape=mxgraph.cabinets.cb_1p;" vertex="1" parent="rie9ZK1b0KE5LXsKnryG-74">
          <mxGeometry x="153" y="40" width="9" height="50" as="geometry" />
        </mxCell>
        <mxCell id="rie9ZK1b0KE5LXsKnryG-30" value="" style="verticalLabelPosition=bottom;dashed=0;shadow=0;html=1;align=center;verticalAlign=top;shape=mxgraph.cabinets.cb_1p;" vertex="1" parent="rie9ZK1b0KE5LXsKnryG-74">
          <mxGeometry x="162" y="40" width="9" height="50" as="geometry" />
        </mxCell>
        <mxCell id="rie9ZK1b0KE5LXsKnryG-31" value="" style="verticalLabelPosition=bottom;dashed=0;shadow=0;html=1;align=center;verticalAlign=top;shape=mxgraph.cabinets.cb_1p;" vertex="1" parent="rie9ZK1b0KE5LXsKnryG-74">
          <mxGeometry x="171" y="40" width="9" height="50" as="geometry" />
        </mxCell>
        <mxCell id="rie9ZK1b0KE5LXsKnryG-32" value="" style="verticalLabelPosition=bottom;dashed=0;shadow=0;html=1;align=center;verticalAlign=top;shape=mxgraph.cabinets.cb_1p;" vertex="1" parent="rie9ZK1b0KE5LXsKnryG-74">
          <mxGeometry x="180" y="40" width="9" height="50" as="geometry" />
        </mxCell>
        <mxCell id="rie9ZK1b0KE5LXsKnryG-33" value="" style="verticalLabelPosition=bottom;dashed=0;shadow=0;html=1;align=center;verticalAlign=top;shape=mxgraph.cabinets.cb_1p;" vertex="1" parent="rie9ZK1b0KE5LXsKnryG-74">
          <mxGeometry x="189" y="40" width="9" height="50" as="geometry" />
        </mxCell>
        <mxCell id="rie9ZK1b0KE5LXsKnryG-34" value="" style="verticalLabelPosition=bottom;dashed=0;shadow=0;html=1;align=center;verticalAlign=top;shape=mxgraph.cabinets.cb_1p;" vertex="1" parent="rie9ZK1b0KE5LXsKnryG-74">
          <mxGeometry x="198" y="40" width="9" height="50" as="geometry" />
        </mxCell>
        <mxCell id="rie9ZK1b0KE5LXsKnryG-35" value="" style="verticalLabelPosition=bottom;dashed=0;shadow=0;html=1;align=center;verticalAlign=top;shape=mxgraph.cabinets.cb_1p;" vertex="1" parent="rie9ZK1b0KE5LXsKnryG-74">
          <mxGeometry x="207" y="40" width="9" height="50" as="geometry" />
        </mxCell>
        <mxCell id="rie9ZK1b0KE5LXsKnryG-36" value="" style="verticalLabelPosition=bottom;dashed=0;shadow=0;html=1;align=center;verticalAlign=top;shape=mxgraph.cabinets.cb_1p;" vertex="1" parent="rie9ZK1b0KE5LXsKnryG-74">
          <mxGeometry x="216" y="40" width="9" height="50" as="geometry" />
        </mxCell>
        <mxCell id="rie9ZK1b0KE5LXsKnryG-37" value="" style="verticalLabelPosition=bottom;dashed=0;shadow=0;html=1;align=center;verticalAlign=top;shape=mxgraph.cabinets.cb_1p;" vertex="1" parent="rie9ZK1b0KE5LXsKnryG-74">
          <mxGeometry x="225" y="40" width="9" height="50" as="geometry" />
        </mxCell>
        <mxCell id="rie9ZK1b0KE5LXsKnryG-38" value="" style="verticalLabelPosition=bottom;dashed=0;shadow=0;html=1;align=center;verticalAlign=top;shape=mxgraph.cabinets.cb_1p;" vertex="1" parent="rie9ZK1b0KE5LXsKnryG-74">
          <mxGeometry x="234" y="40" width="9" height="50" as="geometry" />
        </mxCell>
        <mxCell id="rie9ZK1b0KE5LXsKnryG-39" value="" style="verticalLabelPosition=bottom;dashed=0;shadow=0;html=1;align=center;verticalAlign=top;shape=mxgraph.cabinets.cb_1p;" vertex="1" parent="rie9ZK1b0KE5LXsKnryG-74">
          <mxGeometry x="243" y="40" width="9" height="50" as="geometry" />
        </mxCell>
        <mxCell id="rie9ZK1b0KE5LXsKnryG-40" value="" style="verticalLabelPosition=bottom;dashed=0;shadow=0;html=1;align=center;verticalAlign=top;shape=mxgraph.cabinets.cb_1p;" vertex="1" parent="rie9ZK1b0KE5LXsKnryG-74">
          <mxGeometry x="252" y="40" width="9" height="50" as="geometry" />
        </mxCell>
        <mxCell id="rie9ZK1b0KE5LXsKnryG-41" value="" style="verticalLabelPosition=bottom;dashed=0;shadow=0;html=1;align=center;verticalAlign=top;shape=mxgraph.cabinets.cb_1p;" vertex="1" parent="rie9ZK1b0KE5LXsKnryG-74">
          <mxGeometry x="261" y="40" width="9" height="50" as="geometry" />
        </mxCell>
        <mxCell id="rie9ZK1b0KE5LXsKnryG-42" value="" style="verticalLabelPosition=bottom;dashed=0;shadow=0;html=1;align=center;verticalAlign=top;shape=mxgraph.cabinets.cb_1p;" vertex="1" parent="rie9ZK1b0KE5LXsKnryG-74">
          <mxGeometry x="270" y="40" width="9" height="50" as="geometry" />
        </mxCell>
        <mxCell id="rie9ZK1b0KE5LXsKnryG-43" value="" style="verticalLabelPosition=bottom;dashed=0;shadow=0;html=1;align=center;verticalAlign=top;shape=mxgraph.cabinets.cb_1p;" vertex="1" parent="rie9ZK1b0KE5LXsKnryG-74">
          <mxGeometry x="279" y="40" width="9" height="50" as="geometry" />
        </mxCell>
        <mxCell id="rie9ZK1b0KE5LXsKnryG-44" value="" style="verticalLabelPosition=bottom;dashed=0;shadow=0;html=1;align=center;verticalAlign=top;shape=mxgraph.cabinets.cb_1p;" vertex="1" parent="rie9ZK1b0KE5LXsKnryG-74">
          <mxGeometry x="288" y="40" width="9" height="50" as="geometry" />
        </mxCell>
        <mxCell id="rie9ZK1b0KE5LXsKnryG-45" value="" style="verticalLabelPosition=bottom;dashed=0;shadow=0;html=1;align=center;verticalAlign=top;shape=mxgraph.cabinets.cb_1p;" vertex="1" parent="rie9ZK1b0KE5LXsKnryG-74">
          <mxGeometry x="297" y="40" width="9" height="50" as="geometry" />
        </mxCell>
        <mxCell id="rie9ZK1b0KE5LXsKnryG-46" value="" style="verticalLabelPosition=bottom;dashed=0;shadow=0;html=1;align=center;verticalAlign=top;shape=mxgraph.cabinets.cb_1p;" vertex="1" parent="rie9ZK1b0KE5LXsKnryG-74">
          <mxGeometry x="306" y="40" width="9" height="50" as="geometry" />
        </mxCell>
        <mxCell id="rie9ZK1b0KE5LXsKnryG-47" value="" style="verticalLabelPosition=bottom;dashed=0;shadow=0;html=1;align=center;verticalAlign=top;shape=mxgraph.cabinets.cb_1p;" vertex="1" parent="rie9ZK1b0KE5LXsKnryG-74">
          <mxGeometry x="315" y="40" width="9" height="50" as="geometry" />
        </mxCell>
        <mxCell id="rie9ZK1b0KE5LXsKnryG-48" value="" style="verticalLabelPosition=bottom;dashed=0;shadow=0;html=1;align=center;verticalAlign=top;shape=mxgraph.cabinets.cb_1p;" vertex="1" parent="rie9ZK1b0KE5LXsKnryG-74">
          <mxGeometry x="324" y="40" width="9" height="50" as="geometry" />
        </mxCell>
        <mxCell id="rie9ZK1b0KE5LXsKnryG-49" value="" style="verticalLabelPosition=bottom;dashed=0;shadow=0;html=1;align=center;verticalAlign=top;shape=mxgraph.cabinets.cb_1p;" vertex="1" parent="rie9ZK1b0KE5LXsKnryG-74">
          <mxGeometry x="333" y="40" width="9" height="50" as="geometry" />
        </mxCell>
        <mxCell id="rie9ZK1b0KE5LXsKnryG-50" value="" style="verticalLabelPosition=bottom;dashed=0;shadow=0;html=1;align=center;verticalAlign=top;shape=mxgraph.cabinets.cb_1p;" vertex="1" parent="rie9ZK1b0KE5LXsKnryG-74">
          <mxGeometry x="342" y="40" width="9" height="50" as="geometry" />
        </mxCell>
        <mxCell id="rie9ZK1b0KE5LXsKnryG-51" value="" style="verticalLabelPosition=bottom;dashed=0;shadow=0;html=1;align=center;verticalAlign=top;shape=mxgraph.cabinets.cb_1p;" vertex="1" parent="rie9ZK1b0KE5LXsKnryG-74">
          <mxGeometry x="351" y="40" width="9" height="50" as="geometry" />
        </mxCell>
        <mxCell id="rie9ZK1b0KE5LXsKnryG-75" style="edgeStyle=orthogonalEdgeStyle;rounded=0;orthogonalLoop=1;jettySize=auto;html=1;exitX=0.5;exitY=1;exitDx=0;exitDy=0;" edge="1" parent="1" source="rie9ZK1b0KE5LXsKnryG-70" target="rie9ZK1b0KE5LXsKnryG-70">
          <mxGeometry relative="1" as="geometry" />
        </mxCell>
        <mxCell id="rie9ZK1b0KE5LXsKnryG-76" value="HA" style="text;html=1;strokeColor=none;fillColor=none;align=center;verticalAlign=middle;whiteSpace=wrap;rounded=0;" vertex="1" parent="1">
          <mxGeometry x="-444" y="950" width="60" height="30" as="geometry" />
        </mxCell>
      </root>
    </mxGraphModel>
  </diagram>
</mxfile>
